<svg width="168" height="32" viewBox="0 0 168 32" fill="none" xmlns="http://www.w3.org/2000/svg">
<g clip-path="url(#clip0_517_929)">
<path d="M14.8481 17.4344C12.9708 17.2001 9.39233 20.4105 8.00477 23.6092C7.64796 24.4322 6.9845 26.0175 7.48239 27.6064C7.59433 27.9631 8.24613 29.8516 10.5374 30.1861C10.57 30.1908 10.6015 30.1955 10.6341 30.199C12.2316 30.3983 14.4762 29.8504 15.8322 28.3548C17.1755 26.8732 17.2595 24.9078 17.2641 24.1594C17.2641 23.9496 17.2618 23.7467 17.2536 23.5544C17.1825 21.5575 16.7954 19.3112 15.6504 17.8517C15.4113 17.5475 15.1839 17.4927 14.9228 17.4449C14.8983 17.4402 14.8738 17.4367 14.8481 17.4332" fill="#F64E85"/>
<path d="M8.36181 9.93185C7.49896 9.82461 6.01461 9.72786 4.25043 10.587C3.82017 10.7968 1.52428 11.9625 0.500511 14.273C-0.215425 15.8887 -0.266729 17.9683 1.04504 18.8752C1.43566 19.1445 1.90906 19.2867 2.40345 19.3485C3.524 19.4884 4.74599 19.2144 5.3255 19.0711C5.55987 19.0128 5.78608 18.951 6.00412 18.8904C8.25337 18.2551 10.8746 17.2432 12.83 15.722C13.2381 15.4049 13.3652 15.1694 13.4911 14.9025C14.389 13.014 11.7911 10.4005 8.5682 9.961C8.50407 9.95284 8.43527 9.94351 8.36298 9.93419" fill="#F78A4C"/>
<path d="M21.028 0.0396393C19.4305 -0.159698 17.1859 0.389353 15.8299 1.88496C14.4854 3.36659 14.4015 5.33198 14.398 6.08037C14.3957 6.29019 14.4015 6.49186 14.4073 6.68537C14.4796 8.68107 14.8667 10.9286 16.0129 12.388C16.2508 12.6923 16.4782 12.7482 16.7405 12.7949C16.765 12.7995 16.7907 12.803 16.8151 12.8065C18.6924 13.0408 22.2698 9.83047 23.6562 6.63291C24.0141 5.80875 24.6776 4.22338 24.1786 2.63568C24.0666 2.27897 23.416 0.389353 21.1259 0.0547936C21.0933 0.0501308 21.0618 0.0454679 21.0291 0.0419708" fill="#A0F0FD"/>
<path d="M29.258 10.8913C28.1387 10.7514 26.9155 11.0253 26.3372 11.1699C26.104 11.227 25.8754 11.2899 25.6585 11.3505C23.407 11.987 20.7881 12.9989 18.8315 14.5201C18.4246 14.8372 18.2986 15.0715 18.1704 15.3396C17.2737 17.2281 19.8716 19.8416 23.0945 20.2799C23.1609 20.2892 23.2332 20.2986 23.3102 20.3079C24.173 20.4151 25.6527 20.5072 27.4122 19.6504C27.8425 19.4406 30.1372 18.276 31.161 15.9656C31.8769 14.3499 31.9294 12.2703 30.6176 11.3645C30.227 11.0953 29.7524 10.953 29.258 10.8913Z" fill="#8732F8"/>
<path d="M20.1876 20.6949C20.0453 20.6774 19.9019 20.6669 19.7585 20.6646C19.5335 20.6611 19.4087 20.7194 19.2699 20.7928C18.2893 21.3116 17.8346 23.3819 18.4117 24.7131C18.5587 25.0512 18.8525 25.6947 19.6815 25.9581C19.7445 25.9779 19.8996 26.0246 20.1246 26.0525C20.5677 26.1073 21.279 26.091 22.0637 25.6527C22.8904 25.1911 23.7498 24.29 23.8116 23.4273C23.871 22.5892 23.1668 22.0332 22.8858 21.8315C22.8076 21.7744 22.7295 21.7219 22.6537 21.6718C21.9704 21.2265 21.1087 20.8092 20.1876 20.6949Z" fill="#CB4A74"/>
<path d="M7.62952 19.556C6.77017 19.4487 5.46073 19.7238 4.381 20.3358C3.96123 20.5737 3.15901 21.0411 2.62964 21.9177C2.5107 22.1147 1.89388 23.179 2.29499 24.1349C2.51653 24.6618 3.03774 25.1316 3.7117 25.2155C3.89243 25.2377 4.08483 25.233 4.28538 25.1934C5.20537 25.0139 6.02625 24.1745 6.33175 23.8446C6.41686 23.7526 6.49849 23.6616 6.57544 23.5742C7.373 22.6661 8.19738 21.5365 8.52269 20.4886C8.59032 20.2706 8.55884 20.1657 8.51687 20.0526C8.41309 19.7751 8.08427 19.6119 7.62952 19.5548" fill="#D4ED77"/>
<path d="M11.5372 4.18607C11.0941 4.13128 10.3828 4.1476 9.59692 4.58591C8.77021 5.04753 7.91086 5.94863 7.85023 6.81125C7.79076 7.6494 8.49503 8.20545 8.77605 8.40828C8.85533 8.4654 8.93346 8.51786 9.00925 8.56682C9.69254 9.01212 10.5554 9.42945 11.4765 9.54485C11.6176 9.56234 11.7599 9.57283 11.9033 9.57516C12.1283 9.57866 12.2543 9.51921 12.393 9.44577C13.3737 8.92819 13.8272 6.85788 13.2501 5.52664C13.1031 5.18858 12.8105 4.54511 11.9803 4.28166C11.9173 4.26184 11.7622 4.21521 11.5383 4.18723" fill="#FFD331"/>
<path d="M27.9501 5.02189C27.7693 4.99974 27.5769 5.00441 27.3764 5.04404C26.4576 5.22473 25.6367 6.06404 25.3312 6.39277C25.2449 6.48603 25.1633 6.57579 25.0863 6.66322C24.2899 7.57014 23.4656 8.69972 23.1402 9.74886C23.0714 9.96801 23.1018 10.0729 23.1449 10.186C23.2487 10.4634 23.5787 10.6266 24.0334 10.6838C24.8939 10.791 26.2022 10.5159 27.2819 9.90273C27.7017 9.66493 28.5028 9.19864 29.0333 8.32086C29.1522 8.12386 29.7691 7.06073 29.3679 6.10368C29.1452 5.57677 28.6252 5.10699 27.9512 5.02306" fill="#66A0D1"/>
<path d="M40.6787 25.1969C38.8119 25.1969 38.5542 24.7668 38.5542 23.8762C38.5542 21.4934 38.6405 18.824 38.6405 16.3258C38.6405 12.9383 38.4971 9.29192 38.4971 6.27855C38.4971 5.58961 38.8422 5.18744 39.761 5.18744C40.3067 5.18744 43.8095 5.21658 46.9402 5.21658H50.3858C51.2755 5.21658 51.5343 5.50335 51.5343 7.28339C51.5343 9.20682 51.3618 9.46561 50.3566 9.46561C49.7247 9.43646 47.6573 9.46561 45.7905 9.46561H43.6369V13.1691C45.7905 13.1399 47.5139 13.0828 49.2081 13.0828C50.0698 13.0828 50.5572 13.3125 50.5572 15.4655C50.5572 16.8434 50.2704 17.2736 49.495 17.3027C47.3122 17.4181 45.8768 17.4461 43.6369 17.4752V23.3026C43.6369 24.7096 43.378 25.1969 40.6787 25.1969Z" fill="white"/>
<path d="M60.3776 10.6418C64.6848 10.6418 67.4413 13.3404 67.4413 17.8471C67.4413 22.3537 64.082 25.5699 59.8027 25.5699C55.5234 25.5699 52.5664 22.8142 52.5664 18.3926C52.5664 13.5118 56.1274 10.6418 60.3764 10.6418H60.3776ZM60.0324 20.977C61.5541 20.977 62.5883 19.8288 62.5883 17.9625C62.5883 16.0962 61.4969 15.2347 60.0616 15.2347C58.5399 15.2347 57.3914 16.2967 57.3914 18.2772C57.3914 20.0573 58.6262 20.9759 60.0336 20.9759L60.0324 20.977Z" fill="white"/>
<path d="M75.1937 6.50819C76.256 6.50819 76.4857 7.16798 76.4857 8.54585C76.4857 9.06226 76.4565 9.95287 76.4285 11.1011H79.9604C80.9084 11.1011 81.0798 11.5033 81.0798 13.1388C81.0798 14.7743 80.9072 15.1485 79.5581 15.1485H76.3131C76.3131 16.3258 76.284 17.5312 76.284 18.7657C76.284 20.5457 76.9159 21.0621 78.3513 21.3489C78.9542 21.4643 79.0976 21.8373 79.0976 22.5263C79.0976 24.1909 78.5519 25.5408 77.4896 25.5408C72.5224 25.5408 71.459 22.412 71.459 19.0524C71.459 17.5591 71.459 16.2967 71.4881 15.1485H69.6213C68.7025 15.1485 68.502 14.7183 68.502 13.1388C68.502 11.5592 68.6745 11.1011 69.6213 11.1011H71.5744C71.6036 10.2688 71.6607 9.46443 71.6899 8.68923C71.8053 7.11086 73.7572 6.50702 75.1926 6.50702L75.1937 6.50819Z" fill="white"/>
<path d="M89.8961 10.6418C94.2034 10.6418 96.9599 13.3404 96.9599 17.8471C96.9599 22.3537 93.6006 25.5699 89.3213 25.5699C85.042 25.5699 82.085 22.8142 82.085 18.3926C82.085 13.5118 85.646 10.6418 89.895 10.6418H89.8961ZM89.551 20.977C91.0726 20.977 92.1069 19.8288 92.1069 17.9625C92.1069 16.0962 91.0155 15.2347 89.5801 15.2347C88.0585 15.2347 86.9099 16.2967 86.9099 18.2772C86.9099 20.0573 88.1448 20.9759 89.5521 20.9759L89.551 20.977Z" fill="white"/>
<path d="M100.52 30.4216C100.52 29.6464 100.98 27.4362 101.956 27.4362C102.645 27.4362 103.764 27.8664 105.144 27.8664C107.097 27.8664 108.216 27.1203 108.475 24.3646C108.504 24.1058 108.532 23.5602 108.532 22.8433C107.527 24.2212 106.119 24.853 104.425 24.853C100.864 24.853 98.7969 22.2115 98.7969 18.0779C98.7969 13.6284 101.582 10.7001 105.344 10.7001C106.665 10.7001 107.757 11.1302 108.56 11.7912V11.6187C108.56 10.6138 109.651 10.3842 111.748 10.3842C113.097 10.3842 113.471 10.7864 113.471 11.9054C113.471 13.4267 113.041 21.3221 112.725 24.4508C112.15 30.1349 109.623 32.0012 105.489 32.0012C104.081 32.0012 102.617 31.7715 101.67 31.5419C100.837 31.3122 100.521 31.0826 100.521 30.4228L100.52 30.4216ZM106.033 20.4606C107.009 20.4606 108.33 20.4898 108.474 15.8957C107.985 15.4072 107.125 15.0634 106.291 15.0634C104.424 15.0634 103.707 16.2687 103.707 17.6757C103.707 19.2261 104.597 20.4606 106.033 20.4606Z" fill="white"/>
<path d="M120.132 10.8715C121.424 10.8715 121.597 11.1582 121.597 11.8192C121.597 12.6235 121.511 13.8289 121.396 15.0914C122.143 12.2785 123.521 10.7281 125.79 10.7281C126.336 10.7281 126.652 10.8144 126.996 10.9869C127.312 11.1303 127.512 11.3599 127.512 11.7912C127.512 12.9394 126.65 16.1545 125.588 16.1545C125.243 16.1545 124.842 15.9248 123.923 15.9248C123.004 15.9248 122.286 16.1545 121.856 17.4461C121.626 18.1921 121.54 19.2541 121.54 22.1824C121.54 24.7085 120.994 25.2832 118.438 25.2832C117.347 25.2832 116.601 24.9673 116.601 23.7899C116.601 21.378 116.773 14.4887 116.773 12.2493C116.773 11.1011 117.433 10.8715 120.132 10.8715Z" fill="white"/>
<path d="M139.4 25.4545C138.079 25.4545 137.849 24.9661 137.792 24.2492L137.706 23.2152C136.701 24.8519 135.236 25.5688 133.456 25.5688C129.895 25.5688 127.827 22.7839 127.827 18.4206C127.827 13.7694 130.613 10.6407 134.374 10.6407C135.753 10.6407 136.873 11.1291 137.706 11.8751C138.022 10.9857 138.911 10.784 140.664 10.784C142.186 10.784 142.472 11.2433 142.472 12.3624C142.472 13.9991 142.443 15.6066 142.443 17.157C142.443 22.5251 142.816 22.7268 142.816 24.0184C142.816 25.0804 141.467 25.4534 139.399 25.4534L139.4 25.4545ZM135.063 20.9759C136.039 20.9759 137.361 20.9759 137.504 16.1242C137.015 15.6078 136.155 15.2347 135.321 15.2347C133.454 15.2347 132.737 16.5263 132.737 18.0196C132.737 19.6563 133.627 20.977 135.063 20.977V20.9759Z" fill="white"/>
<path d="M149.334 10.8715C150.626 10.8715 150.971 11.2445 150.971 11.9334C150.971 12.4219 150.942 13.0245 150.885 13.6843C151.631 11.6467 153.009 10.6418 155.049 10.6418C157.088 10.6418 158.551 11.7609 159.183 13.9723C159.93 11.8192 161.452 10.6418 163.606 10.6418C166.219 10.6418 168 12.6515 168 16.4121C168 18.4789 167.856 21.8373 167.654 24.1058C167.568 25.0244 167.252 25.3403 166.219 25.3403C163.204 25.3403 162.86 24.881 162.86 23.7036C162.86 21.7802 163.089 21.7511 163.089 19.0816C163.089 16.2687 162.573 15.2347 161.366 15.2347C159.586 15.2347 159.385 17.0427 159.356 19.3404C159.299 21.378 159.24 22.5274 159.24 23.5603C159.24 25.1386 158.292 25.254 156.455 25.254C154.904 25.254 154.358 24.5651 154.358 23.1581C154.358 21.2638 154.531 19.3975 154.531 18.3064C154.531 16.067 153.899 15.2347 152.98 15.2347C151.946 15.2347 151.229 15.5215 150.999 18.6514C150.884 19.6563 150.913 20.2881 150.913 22.0961C150.913 24.7947 150.568 25.2832 148.329 25.2832C146.376 25.2832 145.975 24.853 145.975 23.5894C145.975 20.7765 146.147 15.5227 146.147 12.451C146.147 11.1023 146.779 10.8726 149.335 10.8726L149.334 10.8715Z" fill="white"/>
</g>
<defs>
<clipPath id="clip0_517_929">
<rect width="168" height="32" fill="white"/>
</clipPath>
</defs>
</svg>
